<svg width="116" height="18" viewBox="0 0 116 18" fill="none" xmlns="http://www.w3.org/2000/svg">
<path d="M19.1451 6.44716L13.2753 5.59784L10.6492 0.315951C10.5545 0.122506 10.3551 0 10.1362 0C9.91727 0 9.72063 0.122515 9.62322 0.315951L6.99712 5.59784L1.12729 6.44716C0.911156 6.47756 0.73305 6.62679 0.664423 6.83405C0.597637 7.03947 0.652364 7.26515 0.809126 7.41624L5.05757 11.5292L4.05576 17.3372C4.02051 17.549 4.10771 17.7637 4.28395 17.8917C4.45926 18.0188 4.69488 18.0354 4.88501 17.9341L10.1351 15.1889L15.3851 17.9294C15.4705 17.9718 15.5604 17.9957 15.6514 17.9957C15.7701 17.9957 15.8888 17.9607 15.989 17.887C16.1643 17.7599 16.2552 17.5425 16.2172 17.3325L15.2154 11.5245L19.4638 7.41152C19.6206 7.26045 19.6753 7.03383 19.6085 6.82933C19.5362 6.62667 19.3581 6.4756 19.1447 6.44705L19.1451 6.44716Z" fill="#CBFB45"/>
<path d="M43.1451 6.44716L37.2753 5.59784L34.6492 0.315951C34.5545 0.122506 34.3551 0 34.1362 0C33.9173 0 33.7206 0.122515 33.6232 0.315951L30.9971 5.59784L25.1273 6.44716C24.9112 6.47756 24.733 6.62679 24.6644 6.83405C24.5976 7.03947 24.6524 7.26515 24.8091 7.41624L29.0576 11.5292L28.0558 17.3372C28.0205 17.549 28.1077 17.7637 28.2839 17.8917C28.4593 18.0188 28.6949 18.0354 28.885 17.9341L34.1351 15.1889L39.3851 17.9294C39.4705 17.9718 39.5604 17.9957 39.6514 17.9957C39.7701 17.9957 39.8888 17.9607 39.989 17.887C40.1643 17.7599 40.2552 17.5425 40.2172 17.3325L39.2154 11.5245L43.4638 7.41152C43.6206 7.26045 43.6753 7.03383 43.6085 6.82933C43.5362 6.62667 43.3581 6.4756 43.1447 6.44705L43.1451 6.44716Z" fill="#CBFB45"/>
<path d="M67.1451 6.44716L61.2753 5.59784L58.6492 0.315951C58.5545 0.122506 58.3551 0 58.1362 0C57.9173 0 57.7206 0.122515 57.6232 0.315951L54.9971 5.59784L49.1273 6.44716C48.9112 6.47756 48.733 6.62679 48.6644 6.83405C48.5976 7.03947 48.6524 7.26515 48.8091 7.41624L53.0576 11.5292L52.0558 17.3372C52.0205 17.549 52.1077 17.7637 52.2839 17.8917C52.4593 18.0188 52.6949 18.0354 52.885 17.9341L58.1351 15.1889L63.3851 17.9294C63.4705 17.9718 63.5604 17.9957 63.6514 17.9957C63.7701 17.9957 63.8888 17.9607 63.989 17.887C64.1643 17.7599 64.2552 17.5425 64.2172 17.3325L63.2154 11.5245L67.4638 7.41152C67.6206 7.26045 67.6753 7.03383 67.6085 6.82933C67.5362 6.62667 67.3581 6.4756 67.1447 6.44705L67.1451 6.44716Z" fill="#CBFB45"/>
<path d="M91.1451 6.44716L85.2753 5.59784L82.6492 0.315951C82.5545 0.122506 82.3551 0 82.1362 0C81.9173 0 81.7206 0.122515 81.6232 0.315951L78.9971 5.59784L73.1273 6.44716C72.9112 6.47756 72.733 6.62679 72.6644 6.83405C72.5976 7.03947 72.6524 7.26515 72.8091 7.41624L77.0576 11.5292L76.0558 17.3372C76.0205 17.549 76.1077 17.7637 76.2839 17.8917C76.4593 18.0188 76.6949 18.0354 76.885 17.9341L82.1351 15.1889L87.3851 17.9294C87.4705 17.9718 87.5604 17.9957 87.6514 17.9957C87.7701 17.9957 87.8888 17.9607 87.989 17.887C88.1643 17.7599 88.2552 17.5425 88.2172 17.3325L87.2154 11.5245L91.4638 7.41152C91.6206 7.26045 91.6753 7.03383 91.6085 6.82933C91.5362 6.62667 91.3581 6.4756 91.1447 6.44705L91.1451 6.44716Z" fill="#CBFB45"/>
<path d="M105.779 0.0468998C105.53 0.109165 105.292 0.24502 105.116 0.43182C105.032 0.516727 104.454 1.6262 103.832 2.89984C102.943 4.70556 102.671 5.21502 102.569 5.24898C102.496 5.27728 101.33 5.45842 99.9766 5.65088C97.2426 6.04146 97.135 6.06977 96.835 6.49431C96.6029 6.83395 96.569 7.38302 96.7614 7.73398C96.8407 7.87549 97.6388 8.70194 98.7313 9.76047C99.7446 10.7398 100.577 11.5662 100.588 11.5945C100.599 11.6228 100.413 12.7719 100.18 14.1418C99.9427 15.5116 99.7502 16.7287 99.7502 16.8475C99.7559 17.3004 100.124 17.7928 100.571 17.94C101.024 18.0929 101.165 18.0363 103.588 16.7626C104.845 16.1003 105.926 15.5626 105.994 15.5626C106.067 15.5626 106.95 15.9984 107.958 16.5305C110.805 18.0306 110.76 18.008 111.139 17.9796C111.677 17.9344 112.068 17.606 112.209 17.0909C112.271 16.8589 112.237 16.6098 111.841 14.3172C111.603 12.9304 111.411 11.7417 111.411 11.6794C111.411 11.6002 112.017 10.9662 113.29 9.72651C114.581 8.4642 115.198 7.82455 115.266 7.66605C115.492 7.16792 115.311 6.50563 114.864 6.1943C114.649 6.04712 114.479 6.01316 112.102 5.67353C110.709 5.46974 109.509 5.28294 109.43 5.25464C109.317 5.20936 109.073 4.76783 108.128 2.84889C107.267 1.09411 106.928 0.454462 106.786 0.335588C106.634 0.199736 106.101 -0.0210285 105.983 0.00161362C105.966 0.00727463 105.875 0.0242577 105.779 0.0468998ZM108.711 5.92259C108.824 6.02448 109.017 6.13203 109.13 6.16034C109.249 6.18864 110.426 6.36978 111.751 6.56224C113.075 6.74904 114.213 6.93018 114.287 6.95848C114.575 7.08301 114.468 7.23019 113.211 8.4642C110.624 11.0001 110.59 11.0341 110.505 11.3398C110.432 11.6002 110.449 11.7473 110.873 14.2154C111.337 16.9324 111.343 16.9834 111.083 17.023C111.009 17.0343 110.058 16.5645 108.728 15.8626L106.486 14.6852L106.492 8.17551V1.66583L107.5 3.70364C108.298 5.32823 108.547 5.78108 108.711 5.92259Z" fill="#CBFB45"/>
</svg>
