<svg width="27" height="28" viewBox="0 0 27 28" fill="none" xmlns="http://www.w3.org/2000/svg">
<path d="M19.4419 1.1243C15.6043 0.48526 11.6851 0.48526 7.84766 1.1243C6.07232 1.41774 4.43228 2.25897 3.16089 3.53216C1.88765 4.80539 1.04645 6.4438 0.75302 8.21893C0.113983 12.0582 0.113983 15.9757 0.75302 19.8132C1.04646 21.5885 1.88769 23.2285 3.16089 24.5016C4.43249 25.7732 6.07253 26.616 7.84766 26.9078C9.76485 27.216 11.7032 27.3643 13.645 27.3545C15.5866 27.3545 17.5266 27.1931 19.4423 26.8752C21.2176 26.5818 22.8577 25.7406 24.1291 24.4674C25.4023 23.1941 26.2435 21.5557 26.5369 19.7806C26.8483 17.87 27.0032 15.9365 26.9999 13.9996C26.9999 12.058 26.8385 10.1179 26.5207 8.20224C26.2256 6.43178 25.3844 4.7983 24.1161 3.52841C22.8461 2.26006 21.2123 1.41936 19.4419 1.1243ZM23.2436 19.2495C22.8768 21.483 21.1276 23.2323 18.8941 23.5991C17.1595 23.8828 15.4037 24.0213 13.6447 24.0164C11.8857 24.0213 10.1299 23.8828 8.39538 23.5991C6.16192 23.2323 4.41267 21.483 4.04582 19.2495C3.46709 15.7755 3.46709 12.2298 4.04582 8.75418C4.411 6.52072 6.16025 4.76821 8.39538 4.40128C11.8694 3.82255 15.4151 3.82255 18.8907 4.40128C21.1242 4.76646 22.8767 6.51571 23.2436 8.75084C23.5273 10.4854 23.6659 12.2412 23.661 14.0002C23.6659 15.7592 23.5273 17.515 23.2436 19.2495Z" fill="black"/>
<path d="M16.866 15.5114C16.7617 15.6076 16.39 15.9956 15.9596 16.4634L15.9612 16.4618C13.4669 16.1407 11.504 14.1778 11.1831 11.6837C11.6509 11.2663 12.0178 10.8816 12.1351 10.774H12.1335C12.7253 10.0811 12.6764 9.04917 12.021 8.41664C11.2841 7.67978 10.0908 7.67978 9.35392 8.41664L8.7491 9.02145C8.09049 9.68169 7.74977 10.5946 7.81008 11.5255C7.94376 13.6905 8.86646 15.7332 10.4022 17.2657C11.9379 18.7981 13.9822 19.7143 16.149 19.8431H16.3365C17.1924 19.8431 18.014 19.504 18.6205 18.8992L19.2253 18.2944C19.9589 17.5591 19.9589 16.3674 19.2253 15.6322C18.5944 14.9752 17.5605 14.9229 16.866 15.5114Z" fill="black"/>
</svg>
