<svg width="35" height="34" viewBox="0 0 35 34" fill="none" xmlns="http://www.w3.org/2000/svg">
<g clip-path="url(#clip0_158_157)">
<path d="M32.0104 10.6248H24.7916V5.66649C24.7919 5.47433 24.7519 5.28414 24.6741 5.10748C24.5963 4.93081 24.4823 4.77137 24.3391 4.63885C24.1958 4.50633 24.0263 4.40351 23.8409 4.33663C23.6555 4.26975 23.458 4.24021 23.2604 4.24982H2.98956C2.79201 4.24021 2.5945 4.26975 2.40907 4.33663C2.22363 4.40351 2.05414 4.50633 1.9109 4.63885C1.76766 4.77137 1.65367 4.93081 1.57587 5.10748C1.49806 5.28414 1.45807 5.47433 1.45831 5.66649V25.4998C1.45831 25.6877 1.53514 25.8678 1.67188 26.0007C1.80863 26.1335 1.99409 26.2082 2.18748 26.2082C2.40102 26.2032 2.60657 26.1283 2.77081 25.9957L9.47915 19.8332H10.2083V24.7915C10.2081 24.9836 10.2481 25.1738 10.3259 25.3505C10.4037 25.5272 10.5177 25.6866 10.6609 25.8191C10.8041 25.9516 10.9736 26.0545 11.1591 26.1213C11.3445 26.1882 11.542 26.2178 11.7396 26.2082H25.5208L32.2291 32.3707C32.3934 32.5033 32.5989 32.5782 32.8125 32.5832C33.0059 32.5832 33.1913 32.5085 33.3281 32.3757C33.4648 32.2428 33.5416 32.0627 33.5416 31.8748V12.0415C33.5419 11.8493 33.5019 11.6591 33.4241 11.4825C33.3463 11.3058 33.2323 11.1464 33.0891 11.0139C32.9458 10.8813 32.7763 10.7785 32.5909 10.7116C32.4055 10.6447 32.208 10.6152 32.0104 10.6248ZM8.31248 16.9998L7.5104 17.779L4.37498 20.6123V7.08315H21.875V16.9998H8.31248ZM30.625 26.9873L27.4896 24.154L26.6875 23.3748H13.125V19.8332H23.2604C23.458 19.8428 23.6555 19.8132 23.8409 19.7463C24.0263 19.6795 24.1958 19.5766 24.3391 19.4441C24.4823 19.3116 24.5963 19.1522 24.6741 18.9755C24.7519 18.7988 24.7919 18.6086 24.7916 18.4165V13.4582H30.625V26.9873Z" fill="black"/>
</g>
<defs>
<clipPath id="clip0_158_157">
<rect width="35" height="34" fill="white"/>
</clipPath>
</defs>
</svg>
