<svg width="34" height="24" viewBox="0 0 34 24" fill="none" xmlns="http://www.w3.org/2000/svg">
<path d="M29.9762 10.4396H27.2189V5.44668C27.2189 2.78151 25.0762 0.620972 22.4344 0.620972H4.78583C2.14268 0.620972 0 2.78151 0 5.44668V12.2322C0 14.8974 2.14268 17.0579 4.78583 17.0579H6.28064L8.82424 19.6227L11.3678 17.0579H15.8206L15.8219 18.0592C15.8219 20.0002 17.3871 21.5786 19.3122 21.5786H25.7521L27.5364 23.379L29.3206 21.5786H29.9764C31.9014 21.5786 33.4677 20.0004 33.4677 18.0592L33.4664 13.959C33.4664 12.0193 31.9014 10.4396 29.9762 10.4396ZM7.62813 10.5748C6.67759 10.5748 5.90762 9.79843 5.90762 8.83997C5.90762 7.88151 6.67759 7.10512 7.62813 7.10512C8.57867 7.10512 9.34864 7.88151 9.34864 8.83997C9.34731 9.79843 8.57734 10.5748 7.62813 10.5748ZM19.592 7.10649C20.5425 7.10649 21.3125 7.88288 21.3125 8.84134C21.3125 9.7998 20.5425 10.5762 19.592 10.5762C18.6415 10.5762 17.8715 9.7998 17.8715 8.84134C17.8715 7.88288 18.6415 7.10649 19.592 7.10649ZM13.6099 10.5748C12.6594 10.5748 11.8894 9.79843 11.8894 8.83997C11.8894 7.88151 12.6594 7.10512 13.6099 7.10512C14.5604 7.10512 15.3304 7.88151 15.3304 8.83997C15.3291 9.79709 14.5591 10.5748 13.6099 10.5748ZM32.2699 18.0591C32.2699 19.3348 31.2411 20.3736 29.9746 20.3736H28.8236L27.5345 21.6747L26.2455 20.3736H19.3118C18.0466 20.3736 17.0178 19.3361 17.0178 18.0591V17.0578H17.0164H22.434C25.0759 17.0578 27.2185 14.8973 27.2185 12.2335V11.6472H29.9758C31.241 11.6472 32.2712 12.6846 32.2712 13.9589L32.2699 18.0591Z" fill="#FF8D4D"/>
</svg>
