<svg width="34" height="23" viewBox="0 0 34 23" fill="none" xmlns="http://www.w3.org/2000/svg">
<path d="M29.9762 9.93962H27.2189V4.94668C27.2189 2.28151 25.0762 0.120972 22.4344 0.120972H4.78583C2.14268 0.120972 0 2.28151 0 4.94668V11.7322C0 14.3974 2.14268 16.5579 4.78583 16.5579H6.28064L8.82424 19.1227L11.3678 16.5579H15.8206L15.8219 17.5592C15.8219 19.5002 17.3871 21.0786 19.3122 21.0786H25.7521L27.5364 22.879L29.3206 21.0786H29.9764C31.9014 21.0786 33.4677 19.5004 33.4677 17.5592L33.4664 13.459C33.4664 11.5193 31.9014 9.93962 29.9762 9.93962ZM7.62813 10.0748C6.67759 10.0748 5.90762 9.29843 5.90762 8.33997C5.90762 7.38151 6.67759 6.60512 7.62813 6.60512C8.57867 6.60512 9.34864 7.38151 9.34864 8.33997C9.34731 9.29843 8.57734 10.0748 7.62813 10.0748ZM19.592 6.60649C20.5425 6.60649 21.3125 7.38288 21.3125 8.34134C21.3125 9.2998 20.5425 10.0762 19.592 10.0762C18.6415 10.0762 17.8715 9.2998 17.8715 8.34134C17.8715 7.38288 18.6415 6.60649 19.592 6.60649ZM13.6099 10.0748C12.6594 10.0748 11.8894 9.29843 11.8894 8.33997C11.8894 7.38151 12.6594 6.60512 13.6099 6.60512C14.5604 6.60512 15.3304 7.38151 15.3304 8.33997C15.3291 9.29709 14.5591 10.0748 13.6099 10.0748ZM32.2699 17.5591C32.2699 18.8348 31.2411 19.8736 29.9746 19.8736H28.8236L27.5345 21.1747L26.2455 19.8736H19.3118C18.0466 19.8736 17.0178 18.8361 17.0178 17.5591V16.5578H17.0164H22.434C25.0759 16.5578 27.2185 14.3973 27.2185 11.7335V11.1472H29.9758C31.241 11.1472 32.2712 12.1846 32.2712 13.4589L32.2699 17.5591Z" fill="black"/>
</svg>
