<svg width="34" height="24" viewBox="0 0 34 24" fill="none" xmlns="http://www.w3.org/2000/svg">
<path d="M29.9762 10.4397H27.2189V5.4468C27.2189 2.78163 25.0762 0.621094 22.4344 0.621094H4.78583C2.14268 0.621094 0 2.78163 0 5.4468V12.2323C0 14.8975 2.14268 17.058 4.78583 17.058H6.28064L8.82424 19.6228L11.3678 17.058H15.8206L15.8219 18.0593C15.8219 20.0003 17.3871 21.5787 19.3122 21.5787H25.7521L27.5364 23.3792L29.3206 21.5787H29.9764C31.9014 21.5787 33.4677 20.0005 33.4677 18.0593L33.4664 13.9591C33.4664 12.0194 31.9014 10.4397 29.9762 10.4397ZM7.62813 10.5749C6.67759 10.5749 5.90762 9.79855 5.90762 8.84009C5.90762 7.88163 6.67759 7.10524 7.62813 7.10524C8.57867 7.10524 9.34864 7.88163 9.34864 8.84009C9.34731 9.79855 8.57734 10.5749 7.62813 10.5749ZM19.592 7.10661C20.5425 7.10661 21.3125 7.883 21.3125 8.84146C21.3125 9.79992 20.5425 10.5763 19.592 10.5763C18.6415 10.5763 17.8715 9.79992 17.8715 8.84146C17.8715 7.883 18.6415 7.10661 19.592 7.10661ZM13.6099 10.5749C12.6594 10.5749 11.8894 9.79855 11.8894 8.84009C11.8894 7.88163 12.6594 7.10524 13.6099 7.10524C14.5604 7.10524 15.3304 7.88163 15.3304 8.84009C15.3291 9.79721 14.5591 10.5749 13.6099 10.5749ZM32.2699 18.0592C32.2699 19.3349 31.2411 20.3737 29.9746 20.3737H28.8236L27.5345 21.6748L26.2455 20.3737H19.3118C18.0466 20.3737 17.0178 19.3363 17.0178 18.0592V17.0579H17.0164H22.434C25.0759 17.0579 27.2185 14.8974 27.2185 12.2336V11.6473H29.9758C31.241 11.6473 32.2712 12.6847 32.2712 13.9591L32.2699 18.0592Z" fill="white"/>
</svg>
