<svg width="378" height="21" viewBox="0 0 378 21" fill="none" xmlns="http://www.w3.org/2000/svg">
<path d="M9.2832 14.4554L13.9182 17.2529L12.6882 11.9804L16.7832 8.43293L11.3907 7.97543L9.2832 3.00293L7.1757 7.97543L1.7832 8.43293L5.8782 11.9804L4.6482 17.2529L9.2832 14.4554Z" fill="#13FFB0"/>
<path d="M27.2832 14.4554L31.9182 17.2529L30.6882 11.9804L34.7832 8.43293L29.3907 7.97543L27.2832 3.00293L25.1757 7.97543L19.7832 8.43293L23.8782 11.9804L22.6482 17.2529L27.2832 14.4554Z" fill="#13FFB0"/>
<path d="M45.2832 14.4554L49.9182 17.2529L48.6882 11.9804L52.7832 8.43293L47.3907 7.97543L45.2832 3.00293L43.1757 7.97543L37.7832 8.43293L41.8782 11.9804L40.6482 17.2529L45.2832 14.4554Z" fill="#13FFB0"/>
<path d="M63.2832 14.4554L67.9182 17.2529L66.6882 11.9804L70.7832 8.43293L65.3907 7.97543L63.2832 3.00293L61.1757 7.97543L55.7832 8.43293L59.8782 11.9804L58.6482 17.2529L63.2832 14.4554Z" fill="#13FFB0"/>
<path d="M88.7832 8.43293L83.3907 7.96793L81.2832 3.00293L79.1757 7.97543L73.7832 8.43293L77.8782 11.9804L76.6482 17.2529L81.2832 14.4554L85.9182 17.2529L84.6957 11.9804L88.7832 8.43293ZM81.2832 13.0529V6.07793L82.5657 9.10793L85.8507 9.39293L83.3607 11.5529L84.1107 14.7629L81.2832 13.0529Z" fill="#13FFB0"/>
<path d="M104.211 16.5029H96.6432V5.06293H104.211V6.15093H97.8752V15.4149H104.211V16.5029ZM103.907 11.1909H97.7152V10.1029H103.907V11.1909ZM106.508 16.5029H105.116L108.22 12.4229L105.404 8.63093H106.78L108.988 11.7349L111.196 8.63093H112.556L109.756 12.4229L112.86 16.5029H111.452L108.988 13.1589L106.508 16.5029ZM120.016 14.4549L120.864 15.2389C120.502 15.7083 120.043 16.0816 119.488 16.3589C118.944 16.6256 118.326 16.7589 117.632 16.7589C116.832 16.7589 116.118 16.5776 115.488 16.2149C114.87 15.8523 114.379 15.3563 114.016 14.7269C113.664 14.0976 113.488 13.3776 113.488 12.5669C113.488 11.7563 113.664 11.0363 114.016 10.4069C114.379 9.7776 114.875 9.2816 115.504 8.91893C116.134 8.55626 116.848 8.37493 117.648 8.37493C118.342 8.37493 118.96 8.5136 119.504 8.79093C120.048 9.0576 120.502 9.4256 120.864 9.89493L120.016 10.6789C119.76 10.2949 119.44 9.99093 119.056 9.76693C118.672 9.53226 118.203 9.41493 117.648 9.41493C117.072 9.41493 116.566 9.54826 116.128 9.81493C115.691 10.0816 115.35 10.4549 115.104 10.9349C114.859 11.4043 114.736 11.9483 114.736 12.5669C114.736 13.1856 114.859 13.7349 115.104 14.2149C115.35 14.6843 115.691 15.0523 116.128 15.3189C116.566 15.5856 117.072 15.7189 117.648 15.7189C118.203 15.7189 118.672 15.6069 119.056 15.3829C119.44 15.1483 119.76 14.8389 120.016 14.4549ZM128.919 14.2629L129.751 15.0469C129.335 15.5803 128.833 16.0016 128.247 16.3109C127.66 16.6096 126.988 16.7589 126.231 16.7589C125.399 16.7589 124.652 16.5776 123.991 16.2149C123.34 15.8523 122.828 15.3563 122.455 14.7269C122.081 14.0976 121.895 13.3776 121.895 12.5669C121.895 11.7563 122.071 11.0363 122.423 10.4069C122.785 9.7776 123.281 9.2816 123.911 8.91893C124.54 8.55626 125.255 8.37493 126.055 8.37493C126.823 8.37493 127.5 8.55626 128.087 8.91893C128.684 9.27093 129.153 9.75626 129.495 10.3749C129.836 10.9936 130.007 11.7083 130.007 12.5189V12.6149H128.791V12.5189C128.791 11.9003 128.668 11.3616 128.423 10.9029C128.188 10.4336 127.863 10.0709 127.447 9.81493C127.041 9.54826 126.577 9.41493 126.055 9.41493C125.479 9.41493 124.972 9.54826 124.535 9.81493C124.097 10.0816 123.756 10.4496 123.511 10.9189C123.265 11.3883 123.143 11.9323 123.143 12.5509C123.143 13.1696 123.276 13.7189 123.543 14.1989C123.809 14.6789 124.172 15.0523 124.631 15.3189C125.1 15.5856 125.639 15.7189 126.247 15.7189C127.356 15.7189 128.247 15.2336 128.919 14.2629ZM130.007 12.9829H122.887V12.0069H129.751L130.007 12.5189V12.9829ZM133.056 16.5029H131.872V4.98293H133.056V16.5029ZM141.95 14.2629L142.782 15.0469C142.366 15.5803 141.864 16.0016 141.278 16.3109C140.691 16.6096 140.019 16.7589 139.262 16.7589C138.43 16.7589 137.683 16.5776 137.022 16.2149C136.371 15.8523 135.859 15.3563 135.486 14.7269C135.112 14.0976 134.926 13.3776 134.926 12.5669C134.926 11.7563 135.102 11.0363 135.454 10.4069C135.816 9.7776 136.312 9.2816 136.942 8.91893C137.571 8.55626 138.286 8.37493 139.086 8.37493C139.854 8.37493 140.531 8.55626 141.118 8.91893C141.715 9.27093 142.184 9.75626 142.526 10.3749C142.867 10.9936 143.038 11.7083 143.038 12.5189V12.6149H141.822V12.5189C141.822 11.9003 141.699 11.3616 141.454 10.9029C141.219 10.4336 140.894 10.0709 140.478 9.81493C140.072 9.54826 139.608 9.41493 139.086 9.41493C138.51 9.41493 138.003 9.54826 137.566 9.81493C137.128 10.0816 136.787 10.4496 136.542 10.9189C136.296 11.3883 136.174 11.9323 136.174 12.5509C136.174 13.1696 136.307 13.7189 136.574 14.1989C136.84 14.6789 137.203 15.0523 137.662 15.3189C138.131 15.5856 138.67 15.7189 139.278 15.7189C140.387 15.7189 141.278 15.2336 141.95 14.2629ZM143.038 12.9829H135.918V12.0069H142.782L143.038 12.5189V12.9829ZM152.119 16.5029H150.935V11.9589C150.935 11.1163 150.743 10.4816 150.359 10.0549C149.975 9.62826 149.458 9.41493 148.807 9.41493C148.338 9.41493 147.895 9.5376 147.479 9.78293C147.063 10.0283 146.727 10.4123 146.471 10.9349C146.215 11.4576 146.087 12.1349 146.087 12.9669V16.5029H144.903V8.63093H146.071V11.0149H145.863C145.991 10.3643 146.21 9.84693 146.519 9.46293C146.839 9.07893 147.213 8.8016 147.639 8.63093C148.077 8.46026 148.535 8.37493 149.015 8.37493C149.975 8.37493 150.733 8.6736 151.287 9.27093C151.842 9.8576 152.119 10.7109 152.119 11.8309V16.5029ZM158.839 16.5029H156.983C156.428 16.5029 155.996 16.3536 155.687 16.0549C155.388 15.7456 155.239 15.3136 155.239 14.7589V6.32693H156.423V14.6629C156.423 14.9189 156.492 15.1216 156.631 15.2709C156.77 15.4096 156.972 15.4789 157.239 15.4789H158.839V16.5029ZM158.727 9.63893H153.607V8.63093H158.727V9.63893Z" fill="#686868"/>
<path d="M268.263 5.49293V6.41693L263.237 15.5029H262.047L267.101 6.41693H261.487V5.49293H268.263ZM272.991 15.7269C272.235 15.7269 271.581 15.5216 271.031 15.1109C270.489 14.6909 270.074 14.0936 269.785 13.3189C269.495 12.5349 269.351 11.5969 269.351 10.5049C269.351 8.86226 269.673 7.57893 270.317 6.65493C270.961 5.73093 271.852 5.26893 272.991 5.26893C274.129 5.26893 275.021 5.73093 275.665 6.65493C276.309 7.57893 276.631 8.86226 276.631 10.5049C276.631 11.5969 276.486 12.5349 276.197 13.3189C275.907 14.0936 275.492 14.6909 274.951 15.1109C274.409 15.5216 273.756 15.7269 272.991 15.7269ZM272.991 14.8169C273.803 14.8169 274.428 14.4436 274.867 13.6969C275.315 12.9503 275.539 11.8863 275.539 10.5049C275.539 9.11426 275.315 8.0456 274.867 7.29893C274.428 6.55226 273.803 6.17893 272.991 6.17893C272.179 6.17893 271.549 6.55226 271.101 7.29893C270.662 8.0456 270.443 9.11426 270.443 10.5049C270.443 11.8863 270.662 12.9503 271.101 13.6969C271.549 14.4436 272.179 14.8169 272.991 14.8169ZM282.042 15.7269C281.286 15.7269 280.632 15.5216 280.082 15.1109C279.54 14.6909 279.125 14.0936 278.836 13.3189C278.546 12.5349 278.402 11.5969 278.402 10.5049C278.402 8.86226 278.724 7.57893 279.368 6.65493C280.012 5.73093 280.903 5.26893 282.042 5.26893C283.18 5.26893 284.072 5.73093 284.716 6.65493C285.36 7.57893 285.682 8.86226 285.682 10.5049C285.682 11.5969 285.537 12.5349 285.248 13.3189C284.958 14.0936 284.543 14.6909 284.002 15.1109C283.46 15.5216 282.807 15.7269 282.042 15.7269ZM282.042 14.8169C282.854 14.8169 283.479 14.4436 283.918 13.6969C284.366 12.9503 284.59 11.8863 284.59 10.5049C284.59 9.11426 284.366 8.0456 283.918 7.29893C283.479 6.55226 282.854 6.17893 282.042 6.17893C281.23 6.17893 280.6 6.55226 280.152 7.29893C279.713 8.0456 279.494 9.11426 279.494 10.5049C279.494 11.8863 279.713 12.9503 280.152 13.6969C280.6 14.4436 281.23 14.8169 282.042 14.8169ZM291.092 15.7269C290.336 15.7269 289.683 15.5216 289.132 15.1109C288.591 14.6909 288.176 14.0936 287.886 13.3189C287.597 12.5349 287.452 11.5969 287.452 10.5049C287.452 8.86226 287.774 7.57893 288.418 6.65493C289.062 5.73093 289.954 5.26893 291.092 5.26893C292.231 5.26893 293.122 5.73093 293.766 6.65493C294.41 7.57893 294.732 8.86226 294.732 10.5049C294.732 11.5969 294.588 12.5349 294.298 13.3189C294.009 14.0936 293.594 14.6909 293.052 15.1109C292.511 15.5216 291.858 15.7269 291.092 15.7269ZM291.092 14.8169C291.904 14.8169 292.53 14.4436 292.968 13.6969C293.416 12.9503 293.64 11.8863 293.64 10.5049C293.64 9.11426 293.416 8.0456 292.968 7.29893C292.53 6.55226 291.904 6.17893 291.092 6.17893C290.28 6.17893 289.65 6.55226 289.202 7.29893C288.764 8.0456 288.544 9.11426 288.544 10.5049C288.544 11.8863 288.764 12.9503 289.202 13.6969C289.65 14.4436 290.28 14.8169 291.092 14.8169ZM303.111 10.9389H297.371V10.0709H303.111V10.9389ZM300.675 13.3749H299.807V7.63493H300.675V13.3749ZM312.274 8.50293V9.51093H311.994C311.583 9.51093 311.196 9.61826 310.832 9.83293C310.468 10.0476 310.174 10.3836 309.95 10.8409C309.726 11.2983 309.614 11.8909 309.614 12.6189V15.5029H308.578V8.61493H309.6V10.7989H309.418C309.53 10.2389 309.726 9.79093 310.006 9.45493C310.286 9.11893 310.608 8.87626 310.972 8.72693C311.345 8.5776 311.728 8.50293 312.12 8.50293H312.274ZM319.228 13.5429L319.956 14.2289C319.592 14.6956 319.153 15.0643 318.64 15.3349C318.126 15.5963 317.538 15.7269 316.876 15.7269C316.148 15.7269 315.494 15.5683 314.916 15.2509C314.346 14.9336 313.898 14.4996 313.572 13.9489C313.245 13.3983 313.082 12.7683 313.082 12.0589C313.082 11.3496 313.236 10.7196 313.544 10.1689C313.861 9.61826 314.295 9.18426 314.846 8.86693C315.396 8.5496 316.022 8.39093 316.722 8.39093C317.394 8.39093 317.986 8.5496 318.5 8.86693C319.022 9.17493 319.433 9.5996 319.732 10.1409C320.03 10.6823 320.18 11.3076 320.18 12.0169V12.1009H319.116V12.0169C319.116 11.4756 319.008 11.0043 318.794 10.6029C318.588 10.1923 318.304 9.87493 317.94 9.65093C317.585 9.4176 317.179 9.30093 316.722 9.30093C316.218 9.30093 315.774 9.4176 315.392 9.65093C315.009 9.88426 314.71 10.2063 314.496 10.6169C314.281 11.0276 314.174 11.5036 314.174 12.0449C314.174 12.5863 314.29 13.0669 314.524 13.4869C314.757 13.9069 315.074 14.2336 315.476 14.4669C315.886 14.7003 316.358 14.8169 316.89 14.8169C317.86 14.8169 318.64 14.3923 319.228 13.5429ZM320.18 12.4229H313.95V11.5689H319.956L320.18 12.0169V12.4229ZM324.829 15.5029H323.807L320.839 8.61493H321.959L324.563 14.9569H324.115L326.733 8.61493H327.797L324.829 15.5029ZM330.094 15.5029H329.058V8.61493H330.094V15.5029ZM329.576 6.76693C329.371 6.76693 329.193 6.69693 329.044 6.55693C328.895 6.4076 328.82 6.23026 328.82 6.02493C328.82 5.81026 328.895 5.63293 329.044 5.49293C329.193 5.3436 329.371 5.26893 329.576 5.26893C329.791 5.26893 329.968 5.3436 330.108 5.49293C330.257 5.63293 330.332 5.81026 330.332 6.02493C330.332 6.23026 330.257 6.4076 330.108 6.55693C329.968 6.69693 329.791 6.76693 329.576 6.76693ZM337.876 13.5429L338.604 14.2289C338.24 14.6956 337.802 15.0643 337.288 15.3349C336.775 15.5963 336.187 15.7269 335.524 15.7269C334.796 15.7269 334.143 15.5683 333.564 15.2509C332.995 14.9336 332.547 14.4996 332.22 13.9489C331.894 13.3983 331.73 12.7683 331.73 12.0589C331.73 11.3496 331.884 10.7196 332.192 10.1689C332.51 9.61826 332.944 9.18426 333.494 8.86693C334.045 8.5496 334.67 8.39093 335.37 8.39093C336.042 8.39093 336.635 8.5496 337.148 8.86693C337.671 9.17493 338.082 9.5996 338.38 10.1409C338.679 10.6823 338.828 11.3076 338.828 12.0169V12.1009H337.764V12.0169C337.764 11.4756 337.657 11.0043 337.442 10.6029C337.237 10.1923 336.952 9.87493 336.588 9.65093C336.234 9.4176 335.828 9.30093 335.37 9.30093C334.866 9.30093 334.423 9.4176 334.04 9.65093C333.658 9.88426 333.359 10.2063 333.144 10.6169C332.93 11.0276 332.822 11.5036 332.822 12.0449C332.822 12.5863 332.939 13.0669 333.172 13.4869C333.406 13.9069 333.723 14.2336 334.124 14.4669C334.535 14.7003 335.006 14.8169 335.538 14.8169C336.509 14.8169 337.288 14.3923 337.876 13.5429ZM338.828 12.4229H332.598V11.5689H338.604L338.828 12.0169V12.4229ZM347.796 15.5029H346.592L344.772 9.48293H344.996L343.176 15.5029H341.972L339.76 8.61493H340.838L342.798 15.1109H342.392L344.366 8.61493H345.458L347.418 15.1109H347.012L348.972 8.61493H350.008L347.796 15.5029ZM350.687 14.4389L351.415 13.7389C351.742 14.0843 352.11 14.3549 352.521 14.5509C352.932 14.7469 353.394 14.8449 353.907 14.8449C354.467 14.8449 354.924 14.7283 355.279 14.4949C355.643 14.2523 355.825 13.9443 355.825 13.5709C355.825 13.2443 355.671 12.9923 355.363 12.8149C355.064 12.6283 354.556 12.4836 353.837 12.3809C352.792 12.2316 352.054 12.0076 351.625 11.7089C351.205 11.4009 350.995 10.9903 350.995 10.4769C350.995 10.0569 351.116 9.69293 351.359 9.38493C351.602 9.0676 351.938 8.82493 352.367 8.65693C352.796 8.4796 353.286 8.39093 353.837 8.39093C354.453 8.39093 355.004 8.50293 355.489 8.72693C355.974 8.95093 356.404 9.26826 356.777 9.67893L356.049 10.3789C355.769 10.0336 355.447 9.76293 355.083 9.56693C354.719 9.37093 354.304 9.27293 353.837 9.27293C353.324 9.27293 352.899 9.38026 352.563 9.59493C352.227 9.8096 352.059 10.0943 352.059 10.4489C352.059 10.7103 352.199 10.9203 352.479 11.0789C352.768 11.2283 353.254 11.3496 353.935 11.4429C355.018 11.5923 355.778 11.8349 356.217 12.1709C356.665 12.4976 356.889 12.9549 356.889 13.5429C356.889 13.9723 356.758 14.3549 356.497 14.6909C356.245 15.0176 355.895 15.2743 355.447 15.4609C354.999 15.6383 354.486 15.7269 353.907 15.7269C353.235 15.7269 352.633 15.6149 352.101 15.3909C351.578 15.1576 351.107 14.8403 350.687 14.4389ZM364.519 15.7269C363.819 15.7269 363.193 15.5683 362.643 15.2509C362.092 14.9336 361.658 14.4996 361.341 13.9489C361.033 13.3983 360.879 12.7683 360.879 12.0589C360.879 11.3496 361.033 10.7196 361.341 10.1689C361.658 9.61826 362.092 9.18426 362.643 8.86693C363.193 8.5496 363.819 8.39093 364.519 8.39093C365.228 8.39093 365.853 8.5496 366.395 8.86693C366.945 9.18426 367.375 9.61826 367.683 10.1689C368 10.7196 368.159 11.3496 368.159 12.0589C368.159 12.7683 368 13.3983 367.683 13.9489C367.375 14.4996 366.945 14.9336 366.395 15.2509C365.853 15.5683 365.228 15.7269 364.519 15.7269ZM364.519 14.8169C365.023 14.8169 365.466 14.7003 365.849 14.4669C366.231 14.2336 366.53 13.9116 366.745 13.5009C366.959 13.0809 367.067 12.6003 367.067 12.0589C367.067 11.5176 366.959 11.0416 366.745 10.6309C366.53 10.2109 366.231 9.88426 365.849 9.65093C365.466 9.4176 365.023 9.30093 364.519 9.30093C364.015 9.30093 363.571 9.4176 363.189 9.65093C362.806 9.88426 362.507 10.2109 362.293 10.6309C362.078 11.0416 361.971 11.5176 361.971 12.0589C361.971 12.6003 362.078 13.0809 362.293 13.5009C362.507 13.9116 362.806 14.2336 363.189 14.4669C363.571 14.7003 364.015 14.8169 364.519 14.8169ZM376.114 15.5029H375.078V11.5269C375.078 10.7896 374.91 10.2343 374.574 9.86093C374.238 9.4876 373.786 9.30093 373.216 9.30093C372.806 9.30093 372.418 9.40826 372.054 9.62293C371.69 9.8376 371.396 10.1736 371.172 10.6309C370.948 11.0883 370.836 11.6809 370.836 12.4089V15.5029H369.8V8.61493H370.822V10.7009H370.64C370.752 10.1316 370.944 9.67893 371.214 9.34293C371.494 9.00693 371.821 8.76426 372.194 8.61493C372.577 8.4656 372.978 8.39093 373.398 8.39093C374.238 8.39093 374.901 8.65226 375.386 9.17493C375.872 9.68826 376.114 10.4349 376.114 11.4149V15.5029Z" fill="#6D6D6D"/>
<path d="M177.717 13.5774L181.322 15.7533L180.365 11.6524L183.55 8.89325L179.356 8.53742L177.717 4.66992L176.077 8.53742L171.883 8.89325L175.068 11.6524L174.112 15.7533L177.717 13.5774Z" fill="#13FFB0"/>
<path d="M192.664 15.5029H191.586V6.31893H192.664V15.5029ZM195.996 6.45893H188.254V5.49293H195.996V6.45893ZM199.781 8.50293V9.51093H199.501C199.091 9.51093 198.703 9.61826 198.339 9.83293C197.975 10.0476 197.681 10.3836 197.457 10.8409C197.233 11.2983 197.121 11.8909 197.121 12.6189V15.5029H196.085V8.61493H197.107V10.7989H196.925C197.037 10.2389 197.233 9.79093 197.513 9.45493C197.793 9.11893 198.115 8.87626 198.479 8.72693C198.853 8.5776 199.235 8.50293 199.627 8.50293H199.781ZM207.373 15.5029H206.351V14.1589L206.337 13.7669V8.61493H207.373V15.5029ZM206.477 12.5209L206.687 12.8149C206.734 13.3749 206.636 13.8743 206.393 14.3129C206.15 14.7516 205.805 15.0969 205.357 15.3489C204.918 15.6009 204.41 15.7269 203.831 15.7269C203 15.7269 202.333 15.4796 201.829 14.9849C201.334 14.4903 201.087 13.7763 201.087 12.8429V8.61493H202.123V12.7309C202.123 13.4123 202.286 13.9303 202.613 14.2849C202.949 14.6396 203.416 14.8169 204.013 14.8169C204.433 14.8169 204.82 14.7236 205.175 14.5369C205.539 14.3409 205.838 14.0703 206.071 13.7249C206.304 13.3796 206.44 12.9783 206.477 12.5209ZM208.746 14.4389L209.474 13.7389C209.8 14.0843 210.169 14.3549 210.58 14.5509C210.99 14.7469 211.452 14.8449 211.966 14.8449C212.526 14.8449 212.983 14.7283 213.338 14.4949C213.702 14.2523 213.884 13.9443 213.884 13.5709C213.884 13.2443 213.73 12.9923 213.422 12.8149C213.123 12.6283 212.614 12.4836 211.896 12.3809C210.85 12.2316 210.113 12.0076 209.684 11.7089C209.264 11.4009 209.054 10.9903 209.054 10.4769C209.054 10.0569 209.175 9.69293 209.418 9.38493C209.66 9.0676 209.996 8.82493 210.426 8.65693C210.855 8.4796 211.345 8.39093 211.896 8.39093C212.512 8.39093 213.062 8.50293 213.548 8.72693C214.033 8.95093 214.462 9.26826 214.836 9.67893L214.108 10.3789C213.828 10.0336 213.506 9.76293 213.142 9.56693C212.778 9.37093 212.362 9.27293 211.896 9.27293C211.382 9.27293 210.958 9.38026 210.622 9.59493C210.286 9.8096 210.118 10.0943 210.118 10.4489C210.118 10.7103 210.258 10.9203 210.538 11.0789C210.827 11.2283 211.312 11.3496 211.994 11.4429C213.076 11.5923 213.837 11.8349 214.276 12.1709C214.724 12.4976 214.948 12.9549 214.948 13.5429C214.948 13.9723 214.817 14.3549 214.556 14.6909C214.304 15.0176 213.954 15.2743 213.506 15.4609C213.058 15.6383 212.544 15.7269 211.966 15.7269C211.294 15.7269 210.692 15.6149 210.16 15.3909C209.637 15.1576 209.166 14.8403 208.746 14.4389ZM220.543 15.5029H218.919C218.434 15.5029 218.056 15.3723 217.785 15.1109C217.524 14.8403 217.393 14.4623 217.393 13.9769V6.59893H218.429V13.8929C218.429 14.1169 218.49 14.2943 218.611 14.4249C218.732 14.5463 218.91 14.6069 219.143 14.6069H220.543V15.5029ZM220.445 9.49693H215.965V8.61493H220.445V9.49693ZM223.043 18.2189H222.007V8.61493H223.029V10.7009H222.777C222.861 10.2436 223.043 9.84226 223.323 9.49693C223.613 9.1516 223.967 8.88093 224.387 8.68493C224.817 8.48893 225.279 8.39093 225.773 8.39093C226.445 8.39093 227.043 8.55426 227.565 8.88093C228.088 9.19826 228.494 9.63226 228.783 10.1829C229.082 10.7336 229.231 11.3589 229.231 12.0589C229.231 12.7683 229.077 13.3983 228.769 13.9489C228.471 14.4996 228.051 14.9336 227.509 15.2509C226.977 15.5683 226.366 15.7269 225.675 15.7269C225.05 15.7269 224.499 15.6009 224.023 15.3489C223.557 15.0876 223.202 14.7376 222.959 14.2989C222.726 13.8509 222.642 13.3516 222.707 12.8009L222.903 12.5209C222.941 12.9596 223.081 13.3563 223.323 13.7109C223.566 14.0563 223.883 14.3269 224.275 14.5229C224.667 14.7189 225.097 14.8169 225.563 14.8169C226.077 14.8169 226.525 14.7003 226.907 14.4669C227.29 14.2243 227.589 13.8976 227.803 13.4869C228.027 13.0669 228.139 12.5909 228.139 12.0589C228.139 11.5269 228.032 11.0556 227.817 10.6449C227.612 10.2249 227.323 9.89826 226.949 9.66493C226.576 9.42226 226.142 9.30093 225.647 9.30093C225.143 9.30093 224.695 9.42693 224.303 9.67893C223.911 9.93093 223.603 10.2809 223.379 10.7289C223.155 11.1676 223.043 11.6809 223.043 12.2689V18.2189ZM231.903 15.5029H230.867V8.61493H231.903V15.5029ZM231.385 6.76693C231.179 6.76693 231.002 6.69693 230.853 6.55693C230.703 6.4076 230.629 6.23026 230.629 6.02493C230.629 5.81026 230.703 5.63293 230.853 5.49293C231.002 5.3436 231.179 5.26893 231.385 5.26893C231.599 5.26893 231.777 5.3436 231.917 5.49293C232.066 5.63293 232.141 5.81026 232.141 6.02493C232.141 6.23026 232.066 6.4076 231.917 6.55693C231.777 6.69693 231.599 6.76693 231.385 6.76693ZM234.897 15.5029H233.861V5.42293H234.897V15.5029ZM240.173 15.7269C239.473 15.7269 238.848 15.5683 238.297 15.2509C237.746 14.9336 237.312 14.4996 236.995 13.9489C236.687 13.3983 236.533 12.7683 236.533 12.0589C236.533 11.3496 236.687 10.7196 236.995 10.1689C237.312 9.61826 237.746 9.18426 238.297 8.86693C238.848 8.5496 239.473 8.39093 240.173 8.39093C240.882 8.39093 241.508 8.5496 242.049 8.86693C242.6 9.18426 243.029 9.61826 243.337 10.1689C243.654 10.7196 243.813 11.3496 243.813 12.0589C243.813 12.7683 243.654 13.3983 243.337 13.9489C243.029 14.4996 242.6 14.9336 242.049 15.2509C241.508 15.5683 240.882 15.7269 240.173 15.7269ZM240.173 14.8169C240.677 14.8169 241.12 14.7003 241.503 14.4669C241.886 14.2336 242.184 13.9116 242.399 13.5009C242.614 13.0809 242.721 12.6003 242.721 12.0589C242.721 11.5176 242.614 11.0416 242.399 10.6309C242.184 10.2109 241.886 9.88426 241.503 9.65093C241.12 9.4176 240.677 9.30093 240.173 9.30093C239.669 9.30093 239.226 9.4176 238.843 9.65093C238.46 9.88426 238.162 10.2109 237.947 10.6309C237.732 11.0416 237.625 11.5176 237.625 12.0589C237.625 12.6003 237.732 13.0809 237.947 13.5009C238.162 13.9116 238.46 14.2336 238.843 14.4669C239.226 14.7003 239.669 14.8169 240.173 14.8169ZM249.199 15.5029H247.575C247.09 15.5029 246.712 15.3723 246.441 15.1109C246.18 14.8403 246.049 14.4623 246.049 13.9769V6.59893H247.085V13.8929C247.085 14.1169 247.146 14.2943 247.267 14.4249C247.389 14.5463 247.566 14.6069 247.799 14.6069H249.199V15.5029ZM249.101 9.49693H244.621V8.61493H249.101V9.49693Z" fill="white"/>
</svg>
