<svg width="125" height="28" viewBox="0 0 125 28" fill="none" xmlns="http://www.w3.org/2000/svg">
<path d="M5.38259 10.6133H0.819929V3.71623H5.38259V4.37218H1.56269V9.95734H5.38259V10.6133ZM5.19931 7.41074H1.46623V6.75479H5.19931V7.41074ZM6.7672 10.6133H5.92798L7.79935 8.15349L6.10161 5.86734H6.93119L8.26237 7.73871L9.59354 5.86734H10.4135L8.72538 8.15349L10.5968 10.6133H9.74788L8.26237 8.59722L6.7672 10.6133ZM14.9113 9.37856L15.4226 9.85123C15.2039 10.1342 14.9274 10.3593 14.593 10.5265C14.265 10.6872 13.892 10.7676 13.474 10.7676C12.9917 10.7676 12.5609 10.6583 12.1814 10.4396C11.8085 10.221 11.5126 9.92197 11.294 9.54255C11.0818 9.16313 10.9757 8.72905 10.9757 8.24031C10.9757 7.75157 11.0818 7.31749 11.294 6.93807C11.5126 6.55865 11.8117 6.25962 12.1911 6.04097C12.5705 5.82232 13.0014 5.713 13.4837 5.713C13.9017 5.713 14.2747 5.7966 14.6026 5.9638C14.9306 6.12457 15.2039 6.34644 15.4226 6.62939L14.9113 7.10206C14.757 6.87055 14.5641 6.68727 14.3326 6.55222C14.101 6.41074 13.8181 6.34001 13.4837 6.34001C13.1364 6.34001 12.831 6.42039 12.5673 6.58116C12.3036 6.74193 12.0978 6.96701 11.9499 7.2564C11.802 7.53935 11.7281 7.86732 11.7281 8.24031C11.7281 8.6133 11.802 8.94448 11.9499 9.23387C12.0978 9.51683 12.3036 9.73869 12.5673 9.89946C12.831 10.0602 13.1364 10.1406 13.4837 10.1406C13.8181 10.1406 14.101 10.0731 14.3326 9.93805C14.5641 9.79657 14.757 9.61007 14.9113 9.37856ZM20.2784 9.26281L20.78 9.73548C20.5292 10.057 20.2269 10.311 19.8733 10.4975C19.5196 10.6776 19.1144 10.7676 18.6578 10.7676C18.1562 10.7676 17.7061 10.6583 17.3074 10.4396C16.9151 10.221 16.6064 9.92197 16.3813 9.54255C16.1562 9.16313 16.0437 8.72905 16.0437 8.24031C16.0437 7.75157 16.1498 7.31749 16.362 6.93807C16.5807 6.55865 16.8797 6.25962 17.2591 6.04097C17.6385 5.82232 18.0694 5.713 18.5517 5.713C19.0147 5.713 19.4231 5.82232 19.7768 6.04097C20.1369 6.25319 20.4199 6.54579 20.6257 6.91878C20.8314 7.29177 20.9343 7.72263 20.9343 8.21137V8.26925H20.2012V8.21137C20.2012 7.83838 20.1273 7.51363 19.9794 7.2371C19.8379 6.95415 19.6417 6.7355 19.3909 6.58116C19.1466 6.42039 18.8668 6.34001 18.5517 6.34001C18.2045 6.34001 17.899 6.42039 17.6353 6.58116C17.3717 6.74193 17.1659 6.96379 17.018 7.24675C16.8701 7.52971 16.7961 7.85768 16.7961 8.23066C16.7961 8.60365 16.8765 8.93484 17.0373 9.22423C17.198 9.51361 17.4167 9.73869 17.6932 9.89946C17.9762 10.0602 18.3009 10.1406 18.6675 10.1406C19.3363 10.1406 19.8733 9.84801 20.2784 9.26281ZM20.9343 8.49111H16.6418V7.90269H20.78L20.9343 8.21137V8.49111ZM22.7728 10.6133H22.0589V3.668H22.7728V10.6133ZM28.1348 9.26281L28.6364 9.73548C28.3856 10.057 28.0833 10.311 27.7296 10.4975C27.3759 10.6776 26.9708 10.7676 26.5142 10.7676C26.0126 10.7676 25.5625 10.6583 25.1637 10.4396C24.7715 10.221 24.4628 9.92197 24.2377 9.54255C24.0126 9.16313 23.9001 8.72905 23.9001 8.24031C23.9001 7.75157 24.0062 7.31749 24.2184 6.93807C24.4371 6.55865 24.7361 6.25962 25.1155 6.04097C25.4949 5.82232 25.9258 5.713 26.4081 5.713C26.8711 5.713 27.2795 5.82232 27.6332 6.04097C27.9933 6.25319 28.2763 6.54579 28.482 6.91878C28.6878 7.29177 28.7907 7.72263 28.7907 8.21137V8.26925H28.0576V8.21137C28.0576 7.83838 27.9837 7.51363 27.8358 7.2371C27.6943 6.95415 27.4981 6.7355 27.2473 6.58116C27.003 6.42039 26.7232 6.34001 26.4081 6.34001C26.0608 6.34001 25.7554 6.42039 25.4917 6.58116C25.2281 6.74193 25.0223 6.96379 24.8744 7.24675C24.7265 7.52971 24.6525 7.85768 24.6525 8.23066C24.6525 8.60365 24.7329 8.93484 24.8937 9.22423C25.0544 9.51361 25.2731 9.73869 25.5496 9.89946C25.8326 10.0602 26.1573 10.1406 26.5239 10.1406C27.1927 10.1406 27.7296 9.84801 28.1348 9.26281ZM28.7907 8.49111H24.4982V7.90269H28.6364L28.7907 8.21137V8.49111ZM34.2658 10.6133H33.552V7.87375C33.552 7.36572 33.4362 6.98309 33.2047 6.72585C32.9732 6.46862 32.6613 6.34001 32.269 6.34001C31.9861 6.34001 31.7192 6.41396 31.4684 6.56187C31.2176 6.70978 31.015 6.94129 30.8607 7.2564C30.7063 7.57151 30.6292 7.97986 30.6292 8.48147V10.6133H29.9153V5.86734H30.6195V7.30463H30.4941C30.5713 6.91235 30.7031 6.60045 30.8896 6.36894C31.0825 6.13743 31.3076 5.97023 31.5648 5.86734C31.8285 5.76445 32.105 5.713 32.3944 5.713C32.9732 5.713 33.4298 5.89306 33.7642 6.25319C34.0986 6.60688 34.2658 7.12135 34.2658 7.79658V10.6133ZM38.317 10.6133H37.1981C36.8637 10.6133 36.6032 10.5232 36.4167 10.3432C36.2367 10.1567 36.1466 9.89625 36.1466 9.56184V4.47828H36.8605V9.50397C36.8605 9.65831 36.9023 9.78049 36.9859 9.87052C37.0695 9.95412 37.1917 9.99592 37.3524 9.99592H38.317V10.6133ZM38.2495 6.47505H35.1627V5.86734H38.2495V6.47505Z" fill="white"/>
<path d="M5.42608 24.3435L8.22047 26.0301L7.47892 22.8514L9.94775 20.7127L6.69667 20.4368L5.42608 17.439L4.1555 20.4368L0.904419 20.7127L3.37325 22.8514L2.6317 26.0301L5.42608 24.3435Z" fill="#00B578"/>
<path d="M16.278 24.3435L19.0724 26.0301L18.3308 22.8514L20.7997 20.7127L17.5486 20.4368L16.278 17.439L15.0074 20.4368L11.7563 20.7127L14.2252 22.8514L13.4836 26.0301L16.278 24.3435Z" fill="#00B578"/>
<path d="M27.13 24.3435L29.9244 26.0301L29.1828 22.8514L31.6517 20.7127L28.4006 20.4368L27.13 17.439L25.8594 20.4368L22.6083 20.7127L25.0772 22.8514L24.3356 26.0301L27.13 24.3435Z" fill="#00B578"/>
<path d="M37.9821 24.3435L40.7764 26.0301L40.0349 22.8514L42.5037 20.7127L39.2526 20.4368L37.9821 17.439L36.7115 20.4368L33.4604 20.7127L35.9292 22.8514L35.1877 26.0301L37.9821 24.3435Z" fill="#00B578"/>
<path d="M53.3556 20.7127L50.1046 20.4323L48.834 17.439L47.5634 20.4368L44.3123 20.7127L46.7811 22.8514L46.0396 26.0301L48.834 24.3435L51.6284 26.0301L50.8913 22.8514L53.3556 20.7127ZM48.834 23.498V19.2928L49.6072 21.1196L51.5877 21.2914L50.0865 22.5937L50.5387 24.5289L48.834 23.498Z" fill="#00B578"/>
</svg>
